<svg width="123" height="32" viewBox="0 0 123 32" fill="none" xmlns="http://www.w3.org/2000/svg">
<path opacity="0.6" d="M65 11.5L66.1132 12.5054L65 11.5ZM44 28.5L44.4426 27.0668L44 28.5ZM122.987 4.19995C123.097 3.37892 122.521 2.62382 121.7 2.51339L108.32 0.713803C107.499 0.603371 106.744 1.17943 106.634 2.00046C106.523 2.8215 107.099 3.5766 107.921 3.68703L119.813 5.28666L118.214 17.1796C118.103 18.0006 118.679 18.7557 119.5 18.8661C120.321 18.9766 121.077 18.4005 121.187 17.5795L122.987 4.19995ZM0.338777 12.9913C4.90133 13.4846 10.4833 14.4978 16.5479 15.5648C22.5846 16.6269 29.0665 17.7357 35.3313 18.3918C41.5865 19.047 47.7063 19.2605 53.012 18.4972C58.303 17.7361 62.9791 15.9752 66.1132 12.5054L63.8868 10.4946C61.4209 13.2248 57.547 14.8139 52.5849 15.5278C47.6374 16.2395 41.801 16.053 35.6437 15.4082C29.496 14.7643 23.1092 13.6731 17.0677 12.6102C11.0542 11.5522 5.34867 10.5154 0.661223 10.0087L0.338777 12.9913ZM66.1132 12.5054C67.044 11.4749 67.7267 10.4982 68.0926 9.57286C68.465 8.6312 68.5658 7.57475 68.0326 6.61888C67.5232 5.70557 66.6216 5.22837 65.7762 4.97601C64.9137 4.71853 63.8972 4.62808 62.826 4.64073C58.5788 4.69089 52.121 6.39613 46.4036 8.87367C43.5256 10.1208 40.769 11.5916 38.5215 13.2002C36.3084 14.7841 34.4326 16.6116 33.5361 18.624C33.0759 19.6569 32.8599 20.7714 33.028 21.9209C33.1965 23.0731 33.7339 24.1439 34.5914 25.1131C36.2624 27.0017 39.2251 28.5953 43.5574 29.9332L44.4426 27.0668C40.2749 25.7797 37.9564 24.3889 36.8383 23.1252C36.3013 22.5182 36.0672 21.9708 35.9964 21.4868C35.9253 21.0001 36.0022 20.4603 36.2764 19.8448C36.8487 18.5603 38.2072 17.1143 40.2675 15.6397C42.2935 14.1897 44.8494 12.8167 47.5964 11.6263C53.129 9.22887 59.1712 7.68411 62.8615 7.64052C63.7747 7.62973 64.4574 7.71311 64.9181 7.85065C65.396 7.99331 65.4417 8.13232 65.4127 8.08034C65.3599 7.9858 65.4744 8.03579 65.3029 8.46962C65.1249 8.91976 64.706 9.58763 63.8868 10.4946L66.1132 12.5054ZM43.5574 29.9332C55.8771 33.7378 71.6148 30.537 86.0863 25.0138C100.621 19.4663 114.213 11.4457 122.41 5.19258L120.59 2.80742C112.62 8.88766 99.2805 16.7669 85.0166 22.211C70.689 27.6793 55.76 30.5619 44.4426 27.0668L43.5574 29.9332Z" fill="#FC9803"/>
</svg>
