<svg width="161" height="94" viewBox="0 0 161 94" fill="none" xmlns="http://www.w3.org/2000/svg">
<path d="M33.4686 64.6893C33.3168 64.3293 33.0941 64.002 32.9153 63.6549C32.6684 63.1761 32.5158 62.6312 32.0895 62.2773C30.9434 62.0563 29.7725 61.6625 28.7036 61.1966C26.2363 60.1204 24.0054 58.7177 21.8442 57.1263C20.4573 56.1048 19.075 55.0241 17.8682 53.7907C17.1611 53.0681 16.3721 52.276 16 51.324L16.1403 51.0996C16.8002 50.8106 17.5264 50.8805 18.2284 50.9021C19.9207 50.9542 21.6177 51.1186 23.245 51.6096C26.6415 52.6341 30.463 55.3123 31.7365 58.7625C32.0115 59.5079 32.1671 60.3084 32.1887 61.102C32.1943 61.3048 32.1313 61.6678 32.1762 61.8508C32.2248 62.0483 32.544 62.4409 32.6519 62.6304L33.7044 64.5997L33.4686 64.6893Z" fill="#72A893"/>
<path d="M39.1478 76.6709C39.4727 76.6736 39.7016 76.6838 40.0007 76.8167L56.4595 86.635C56.1246 87.1829 55.7783 87.855 55.6051 88.4748C55.2102 88.4763 54.8844 88.3217 54.5244 88.177C54.4443 88.2279 54.3623 88.2765 54.2734 88.3103C53.861 88.4664 53.1103 88.3923 52.6596 88.4037C49.6666 88.4793 46.6948 88.223 43.7075 88.111L38.1971 88.0289L33.2175 87.7817C29.666 87.6295 26.1035 87.4795 22.573 87.0485C21.5865 86.9281 20.7662 86.7618 19.8545 86.3593C21.9296 85.8603 24.0699 85.8501 26.1849 85.6887L26.3448 85.4874L26.3945 85.4798L26.4636 85.1236C27.6764 84.7451 29.193 84.8066 30.4607 84.6532C33.2464 84.3156 36.1044 83.5983 38.5004 82.0889C38.6766 81.9776 39.2824 81.6047 39.3665 81.4395C39.6609 80.862 39.2826 79.9354 39.7214 79.4179L39.7651 79.3719L38.1822 78.385C38.4704 77.7774 38.76 77.2223 39.1478 76.6709Z" fill="#D2DAE0"/>
<path d="M39.7642 79.3713L43.6017 81.8278C43.4062 82.1684 43.4498 82.6803 43.4176 83.0695C43.342 83.9786 43.23 84.9028 43.2163 85.8142L43.1043 86.0397C41.3111 86.331 39.2711 86.148 37.4425 86.1487L26.6613 86.1202C26.3977 85.9235 26.4429 85.7956 26.3936 85.4793L26.4626 85.1231C27.6754 84.7445 29.192 84.806 30.4598 84.6526C33.2454 84.315 36.1035 83.5977 38.4994 82.0883C38.6757 81.977 39.2814 81.6041 39.3656 81.439C39.6599 80.8614 39.2817 79.9349 39.7205 79.4173L39.7642 79.3713Z" fill="#8D4B52"/>
<path d="M39.1492 76.6709C39.4741 76.6736 39.703 76.6838 40.0021 76.8167L56.4609 86.635C56.126 87.1829 55.7797 87.855 55.6065 88.4748C55.2116 88.4763 54.8858 88.3217 54.5258 88.177L49.3957 85.2622C48.8907 85.5478 48.0708 85.4684 47.4959 85.492L44.6187 85.6412C44.2056 85.6579 43.5828 85.6101 43.2187 85.8148C43.2323 84.9034 43.3444 83.9792 43.4199 83.0701C43.4522 82.6809 43.4085 82.169 43.6041 81.8284L39.7666 79.3719L38.1836 78.385C38.4718 77.7774 38.7614 77.2223 39.1492 76.6709Z" fill="#172136"/>
<path d="M121.086 85.8075C121.912 85.6036 122.615 85.3283 123.348 84.8958L123.452 84.9641C123.69 85.108 124.268 85.0404 124.552 85.0404L127.592 85.0427L131.762 85.3161L137.475 85.6841C138.856 85.8037 140.234 85.9149 141.562 86.3361C138.692 87.296 135.339 87.2539 132.33 87.4088L128.977 87.6503L123.694 87.8064L111.104 88.1933L105.719 88.4094L87.5153 88.5506L81.9644 88.5951C80.2401 88.6437 78.4068 88.761 76.69 88.6801C76.3957 88.4849 75.8915 88.6008 75.5516 88.6327C75.1985 88.6657 74.7751 88.5917 74.4124 88.586L72.5704 88.603L60.1179 88.4986C58.6279 88.4751 57.0843 88.6148 55.6045 88.4747C55.7776 87.855 56.124 87.1829 56.4589 86.6349C56.7072 86.2442 57.0756 85.8971 57.4617 85.6491C57.5426 85.3978 57.5198 85.19 57.4971 84.9299L59.0638 85.1236L62.8649 85.3666L67.2963 85.4433L73.2334 85.7403L76.1193 85.8033C76.6414 85.809 77.2589 85.746 77.7631 85.8853L77.6428 85.9917C78.0388 86.1956 79.7598 85.8648 79.9416 86.1337L112.188 86.0763C112.625 86.1732 113.342 86.0775 113.813 86.0759C115.459 86.0706 117.119 86.1094 118.761 85.9917L121.086 85.8075Z" fill="#D2DAE0"/>
<path d="M57.497 84.9299L59.0638 85.1236C58.9221 85.7501 58.9423 86.7036 59.0752 87.3355L57.5395 87.2493C57.3968 86.7933 57.4662 86.1341 57.4617 85.6491C57.5426 85.3978 57.5198 85.19 57.497 84.9299Z" fill="#172136"/>
<path d="M59.0649 85.1235L62.866 85.3666L67.2974 85.4433L73.2344 85.7402L76.1204 85.8033C76.6425 85.8089 77.2599 85.7459 77.7642 85.8853L77.6438 85.9916C78.0399 86.1955 79.7608 85.8648 79.9427 86.1336L77.8159 86.137C77.7365 86.7708 77.6708 87.4683 77.4642 88.0721C74.813 88.3653 72.1268 87.8902 69.477 87.7812L61.5977 87.4896C60.7661 87.4395 59.901 87.4372 59.0763 87.3355C58.9434 86.7036 58.9232 85.7501 59.0649 85.1235Z" fill="#293444"/>
<path d="M25.105 68.6677C25.7219 68.4752 26.4209 68.5412 27.0607 68.5412L30.2148 68.5333L40.76 68.4907L39.8942 72.9689L39.4 75.2514C39.2964 75.7223 39.1368 76.1844 39.1472 76.6708C38.7594 77.2222 38.4698 77.7774 38.1816 78.3849L39.7646 79.3718L39.7209 79.4178C39.282 79.9353 39.6603 80.8619 39.3659 81.4395C39.2818 81.6046 38.676 81.9775 38.4998 82.0888C36.1038 83.5982 33.2458 84.3155 30.4601 84.6531C29.1924 84.8065 27.6758 84.745 26.463 85.1236L26.3939 85.4797L26.3443 85.4874L25.105 68.6677Z" fill="#C66F66"/>
<path d="M59.2576 74.3667C59.4201 74.4742 59.5784 74.5824 59.7504 74.6735C59.965 74.7874 60.153 74.9735 60.3637 75.1045L60.5053 75.1987L61.313 75.769L61.67 76.0041L62.2623 76.4336L62.437 76.5706L64.611 78.1325C64.9113 77.8484 65.2375 77.594 65.5261 77.2986C65.9639 76.8501 66.7234 75.8218 67.3404 75.706C67.779 75.7922 68.174 75.9209 68.6254 75.9661L68.7789 76.1469L68.9068 76.0246L68.982 76.0538L78.3636 79.0613C78.0423 79.7904 77.6531 80.5411 77.4636 81.3165C77.696 82.7405 77.9588 84.4435 77.7636 85.885C77.2593 85.7456 76.6419 85.8087 76.1198 85.803L73.2338 85.7399L67.2968 85.443L62.8654 85.3663L59.0643 85.1233L57.4975 84.9296C57.5203 85.1897 57.5431 85.3974 57.4622 85.6488C57.076 85.8968 56.7077 86.2438 56.4593 86.6346L40.0005 76.8163C40.4513 76.3762 40.4272 75.7075 41.0543 75.2959C41.4745 75.0198 42.1406 75.1535 42.5989 75.2625C43.2235 75.4937 44.1918 75.4087 44.8742 75.4292C46.6073 75.4804 48.2838 75.5431 50.0154 75.3855C50.307 75.3589 50.7608 75.3806 51.0281 75.2811C51.4071 75.1516 51.764 75.1626 52.1582 75.1649L52.4794 75.1262L52.6754 74.6025C53.9478 75.1611 55.207 76.3538 56.3507 77.1645C57.1155 75.9631 58.3846 75.4022 59.2576 74.3667Z" fill="#FA9225"/>
<path d="M67.7095 77.5746C67.7725 77.4672 67.9385 77.3495 68.033 77.261C68.3125 77.3005 68.6041 77.3248 68.8722 77.4155L68.9037 77.5014C69.1578 78.1412 69.7292 78.5578 69.9685 79.1866L69.809 79.326C69.176 79.2492 68.33 78.478 67.9111 77.9756C67.7991 77.8412 67.7626 77.7376 67.7095 77.5746Z" fill="#172136"/>
<path d="M51.0303 75.2805C51.4092 75.151 51.7662 75.162 52.1603 75.1643C52.3589 75.4525 52.4102 75.7479 52.5397 76.0677C52.7451 76.5765 53.0022 77.0861 53.1719 77.6063L53.104 77.593L52.9931 77.5634C52.1524 77.3432 51.4765 75.9944 51.0303 75.2805Z" fill="#172136"/>
<path d="M58.2983 81.4052C58.5687 80.667 58.983 80.0424 59.5799 79.5339C60.1586 80.2417 60.8934 80.7616 61.4451 81.4926C60.8668 81.7003 59.703 82.2703 59.1349 82.1632L58.2983 81.4052Z" fill="#06162E"/>
<path d="M52.6754 74.6023C53.9479 75.1609 55.207 76.3536 56.3508 77.1643L59.5804 79.5334C58.9834 80.0419 58.5691 80.6666 58.2988 81.4047C56.3094 80.4072 54.6849 79.2255 53.1698 77.6067C53.0001 77.0865 52.743 76.5769 52.5375 76.068C52.4081 75.7483 52.3568 75.4529 52.1582 75.1647L52.4795 75.1259L52.6754 74.6023Z" fill="#FAA39D"/>
<path d="M68.7784 76.1472L68.9064 76.0249L68.9815 76.0541L78.3631 79.0616C78.0419 79.7907 77.6526 80.5414 77.4632 81.3168C75.713 81.613 73.1999 79.976 71.8268 79.0248C71.0211 78.4666 69.8454 77.5339 68.8714 77.4158C68.6033 77.3251 68.3117 77.3008 68.0322 77.2613C68.3075 76.899 68.5623 76.5493 68.7784 76.1472Z" fill="#FAA39D"/>
<path d="M59.2569 74.3667C59.4194 74.4742 59.5778 74.5824 59.7498 74.6735C59.9643 74.7874 60.1523 74.9735 60.3631 75.1045L60.5047 75.1987L61.3124 75.769L61.6693 76.0041L62.2617 76.4336L62.4364 76.5706L64.6103 78.1325C64.9107 77.8484 65.2369 77.594 65.5255 77.2986C65.9633 76.8501 66.7227 75.8218 67.3398 75.706C67.7784 75.7922 68.1733 75.9209 68.6248 75.9661L68.7782 76.1469C68.5621 76.549 68.3074 76.8987 68.032 77.261C67.9375 77.3495 67.7716 77.4672 67.7085 77.5746C67.4913 77.7508 67.2623 77.8617 67.2031 78.1423L67.437 78.3322L67.3873 78.4822L67.2627 78.4685C66.8655 78.4256 66.7463 78.4879 66.3962 78.6812L66.438 78.8163L66.5306 78.8391C67.1435 79.0203 67.9212 79.7877 68.2599 80.3258L68.0993 80.4731C67.4123 80.3577 66.9415 79.4816 66.2481 79.1729L66.1532 78.9352C65.8558 78.966 65.8672 78.9663 65.6633 79.1866C65.7347 79.3989 65.7609 79.3795 65.9633 79.4843L65.8209 79.5731L65.4886 79.4881C65.0614 79.7695 64.6096 79.9479 64.1596 80.1857C64.1501 80.3949 64.1459 80.4294 64.2465 80.6106L64.0647 80.7693L63.9769 80.7518C63.7362 80.7066 63.5873 80.6831 63.3527 80.756L63.1598 80.9428C63.2798 81.0757 63.3272 81.0845 63.4856 81.1574C64.0692 81.4274 64.3726 81.7949 64.5883 82.3976L64.657 82.6041L64.4835 82.6991C64.1903 82.48 64.1182 82.1849 63.8942 81.918C63.6431 81.6191 63.2627 81.3609 62.9729 81.0917L61.4449 81.4923C60.8932 80.7613 60.1584 80.2415 59.5797 79.5337L56.3501 77.1645C57.1149 75.9631 58.3839 75.4022 59.2569 74.3667Z" fill="#08132A"/>
<path d="M116.609 26.9508C117.253 26.9345 117.887 26.7761 118.474 26.5084C119.705 25.9472 121.048 24.8103 121.712 23.6213C121.875 23.3301 121.925 23.0476 122.047 22.7495C122.167 22.4563 122.295 22.1244 122.584 21.9961C122.463 22.3192 122.576 22.609 122.605 22.9393C122.657 23.5351 122.603 24.1719 122.72 24.7567C122.776 25.2223 122.881 25.7376 122.831 26.2039L122.815 26.2901C123.034 27.4748 122.757 28.7978 123.015 29.9495C123.947 29.9408 124.698 30.1344 125.59 30.36C128.876 31.1916 131.831 32.9797 134.239 35.3504C137.877 38.9304 140.534 43.9094 142.667 48.4939C143.435 50.1446 144.249 51.8765 144.69 53.6498C144.942 54.6656 145.04 55.7068 145.044 56.7511C145.051 58.8521 144.388 60.4455 142.897 61.9359C141.024 63.8057 138.792 64.141 136.266 64.1319L132.764 63.9849C132.784 66.6483 132.736 69.2388 132.484 71.8905C132.415 72.6199 132.333 74.1331 131.822 74.6477C131.707 74.7639 131.629 74.7882 131.458 74.773C130.989 74.7316 130.318 74.3089 129.885 74.0868L114.917 64.5374C114.751 64.2864 114.278 64.0696 114.01 63.8957L111.589 62.2917L104.253 57.1479C103.837 56.8711 103.227 56.5612 102.931 56.1655L103.101 56.041L103.098 56.0319C102.872 56.0042 102.783 55.995 102.607 55.8352C103.3 55.8378 104.138 55.932 104.8 55.7148L91.8793 55.6738L91.7753 55.5208L91.5524 54.4119L91.7525 54.2555L91.432 53.8689C91.4556 53.7877 91.3166 53.4736 91.2843 53.3764L90.4614 49.7238C90.9634 49.6999 91.465 49.7876 91.9621 49.8495C92.0908 49.8658 92.3783 49.9384 92.4949 49.9171C92.5887 49.9004 92.9919 49.4421 93.0971 49.338C94.1182 48.3298 95.0189 47.2131 95.9956 46.1643L105.205 36.8381L108.528 33.7377C109.316 33.0302 110.102 32.3004 111.016 31.7551C112.568 30.8289 114.571 30.3816 116.326 30.0095C116.696 29.6077 116.517 28.3774 116.504 27.8272L116.595 27.7232L116.609 26.9508Z" fill="#FA9225"/>
<path d="M91.4346 53.8686L98.8951 53.7911C97.7582 52.0292 96.2423 50.672 94.2609 49.9392L94.1941 49.9156L94.1603 49.7911C94.4283 49.6756 94.6053 49.7766 94.8715 49.8731C96.2662 50.377 97.5497 51.4049 98.4409 52.5733C98.6236 52.8126 98.8814 53.1 98.9965 53.3761C99.0409 53.4824 99.0474 53.5781 99.1298 53.667C99.1544 53.6935 99.268 53.798 99.2866 53.8048C99.4947 53.8807 100.097 53.8052 100.339 53.8056L103.984 53.8462L104.531 53.8166L105.78 53.834C106.068 54.3619 106.17 54.7021 105.994 55.304L105.876 55.6723C105.145 56.188 103.975 56.1284 103.103 56.0406L103.101 56.0315C102.875 56.0038 102.785 55.9947 102.609 55.8348C103.303 55.8375 104.141 55.9317 104.802 55.7144L104.852 55.7C105.127 55.6229 105.252 55.5755 105.443 55.3583C105.565 54.9664 105.618 54.6862 105.43 54.314C104.965 54.161 104.464 54.2123 103.982 54.2126L101.663 54.2134L91.7551 54.2552L91.4346 53.8686Z" fill="#06162E"/>
<path d="M91.7533 54.2562L101.662 54.2144L103.98 54.2136C104.462 54.2132 104.963 54.162 105.428 54.315C105.616 54.6871 105.563 54.9674 105.441 55.3593C105.25 55.5765 105.125 55.6239 104.85 55.701L104.8 55.7154L91.8802 55.6744L91.7761 55.5214L91.5532 54.4126L91.7533 54.2562Z" fill="#B2BDC9"/>
<path d="M118.713 53.2078L127.157 53.0992C127.151 52.1264 127.182 51.13 127.106 50.1609C126.932 47.9448 126.397 45.5757 125.763 43.4465L124.68 40.2952C124.48 39.7074 124.226 39.0265 124.205 38.4057C124.2 38.2538 124.374 38.119 124.472 38.0039L124.631 38.0062C125.114 38.6593 125.316 39.5616 125.797 40.2234C125.877 40.3343 125.867 40.3814 125.912 40.5025C126.005 40.7509 126.176 41.0231 126.292 41.262L126.433 41.4515C126.631 41.7423 126.943 42.3598 127.027 42.6916C127.06 42.8185 127.119 42.8644 127.191 42.9704C127.338 43.1857 127.382 43.4522 127.499 43.6827L128.76 46.3883L129.594 48.2452L130.163 49.5742C130.49 50.2266 130.836 51.0984 131.039 51.7994L131.178 52.2266C131.214 52.3364 131.251 52.4169 131.302 52.5171C131.399 52.7092 131.531 53.0191 131.584 53.2291C131.615 53.351 131.672 53.4125 131.75 53.5078C132.122 53.6335 132.657 53.5598 133.052 53.5595C134.291 53.5579 135.764 53.4182 136.925 53.7459C137.174 53.8165 137.27 53.6324 137.446 53.8875C137.276 54.0573 137.238 54.0315 137.008 54.0311C136.787 54.0307 136.614 53.9354 136.426 53.9286C134.851 53.872 133.088 54.1188 131.609 53.7444C131.161 53.6308 130.656 53.782 130.185 53.6495C129.962 53.5864 129.538 53.6544 129.292 53.6464C129.155 53.6415 129.117 53.5796 128.998 53.5545C128.517 53.4524 128.014 53.5815 127.527 53.4596C127.077 53.3468 126.271 53.4596 125.791 53.4596L121.918 53.4604C121.569 53.4604 120.968 53.3764 120.643 53.4604C120.007 53.6248 119.256 53.5538 118.574 53.5545L118.713 53.2078Z" fill="#E06B11"/>
<path d="M116.61 26.9508C117.254 26.9345 117.888 26.7761 118.475 26.5084C119.706 25.9472 121.048 24.8103 121.713 23.6213C121.875 23.3301 121.925 23.0476 122.047 22.7495C122.168 22.4563 122.296 22.1244 122.585 21.9961C122.464 22.3192 122.576 22.609 122.605 22.9393C122.657 23.5351 122.603 24.1719 122.72 24.7567C122.777 25.2223 122.882 25.7376 122.831 26.2039L122.815 26.2901C123.035 27.4748 122.757 28.7978 123.016 29.9495C123.025 30.3672 123.048 30.7465 122.929 31.151L122.902 31.2527C122.64 32.2169 121.81 33.0682 120.956 33.5448C120.252 33.9374 119.107 34.2059 118.313 33.9609L117.986 33.822L117.881 33.7737L117.781 33.7141L117.673 33.6507C117.052 33.2797 116.653 32.794 116.437 32.1003L116.397 31.9814L116.361 31.8629L116.337 31.7859C116.178 31.2432 116.277 30.767 116.456 30.2491C116.417 30.1591 116.389 30.0854 116.327 30.0095C116.697 29.6077 116.518 28.3774 116.505 27.8272L116.596 27.7232L116.61 26.9508Z" fill="#FEB09B"/>
<path d="M116.611 26.9508C117.254 26.9345 117.888 26.7761 118.475 26.5084C119.706 25.9472 121.049 24.8103 121.713 23.6213C121.876 23.3301 121.926 23.0476 122.048 22.7495C122.168 22.4563 122.296 22.1244 122.585 21.9961C122.464 22.3192 122.577 22.609 122.606 22.9393C122.658 23.5351 122.604 24.1719 122.721 24.7567C122.777 25.2223 122.883 25.7376 122.832 26.2039L122.816 26.2901L122.736 26.3482C122.247 26.7089 121.874 27.171 121.42 27.5678C119.972 28.8335 118.49 29.138 116.626 29.3142L116.596 27.7232L116.611 26.9508Z" fill="#C66F66"/>
<path d="M108.993 47.5989C108.499 46.7753 107.536 45.6046 107.723 44.6082C108.014 44.3302 108.378 44.361 108.777 44.3705C109.305 44.3834 109.981 45.1519 110.312 45.5237C111.439 46.7878 112.344 48.2927 113.269 49.7064C114.085 50.9519 115.196 52.9398 116.609 53.5299L117.006 53.692L115.723 61.4229L112.752 60.5902C110.965 60.0107 109.293 59.1347 107.881 57.8846C107.183 57.2668 106.678 56.1857 105.935 55.7103L105.873 55.6731L105.992 55.3047C106.167 54.7029 106.065 54.3626 105.777 53.8348L104.528 53.8173L103.981 53.847L104.12 51.7827C103.652 51.4285 102.92 51.1118 102.536 50.7127C102.361 50.5312 102.354 50.3314 102.393 50.0903C102.438 49.818 102.654 49.6673 102.867 49.5237C103.249 49.2674 103.856 49.7345 104.268 49.8177C104.433 49.6939 104.417 49.6787 104.461 49.4732C104.354 49.0593 103.911 48.8497 103.598 48.5877C103.28 48.3208 103.259 48.2611 103.218 47.8594C103.335 47.4983 103.531 47.3301 103.799 47.0791C104.224 47.0521 104.257 47.1144 104.6 47.3555L104.789 47.1949C104.81 46.7943 104.751 46.5649 104.531 46.2292L104.494 46.173C104.544 45.6581 104.749 45.4743 105.049 45.0612C105.336 45.1014 105.801 45.1128 106.053 45.2453C106.896 45.6881 107.756 47.136 108.367 47.894L108.993 47.5989Z" fill="#FEB09B"/>
<path d="M108.996 47.5989L110.197 50.0777C109.966 49.8484 109.734 49.6293 109.544 49.3639L108.369 47.8939L108.996 47.5989Z" fill="#C66F66"/>
<path d="M104.531 53.8171C104.315 53.2274 104.369 52.4965 104.329 51.8726C104.757 52.3582 105.697 53.2024 105.781 53.8346L104.531 53.8171Z" fill="#C66F66"/>
<path d="M115.725 61.4228C116.017 61.5003 116.591 61.662 116.885 61.596C117.118 61.5439 117.007 61.3408 117.133 61.1505C117.125 60.9144 117.179 60.3011 117.277 60.1002C117.352 59.9476 117.293 59.8769 117.324 59.7258C117.366 59.5257 117.387 59.0309 117.466 58.8695C117.553 58.6929 117.472 58.5661 117.518 58.3968C117.58 58.1647 117.566 57.826 117.657 57.6354C117.742 57.4596 117.661 57.3305 117.707 57.1626C117.774 56.917 117.751 56.5091 117.848 56.3063C117.931 56.1317 117.856 56.0018 117.9 55.8336C117.986 55.5123 118.005 55.2086 118.083 54.885C118.13 54.6864 118.04 54.5045 118.134 54.304C118.193 54.1776 118.18 54.2638 118.18 54.1073C118.181 53.9312 118.168 54.028 118.203 53.8431L118.273 53.4128C118.447 53.21 118.446 53.2336 118.715 53.2078L118.576 53.5545C118.326 53.8685 118.537 54.3204 118.448 54.6944C118.301 55.316 118.331 55.9748 118.177 56.593C118.101 56.8945 118.161 57.3582 118.031 57.635C117.94 57.8317 118.018 58.0087 117.973 58.2069C117.9 58.5308 117.881 58.8357 117.797 59.1562C117.731 59.4076 117.692 59.8428 117.701 60.1055C117.621 60.2278 117.512 60.7412 117.514 60.8836C117.516 61.0222 117.523 61.1118 117.463 61.2394C117.385 61.4065 117.394 61.5849 117.386 61.7668C118.544 62.6968 130.737 63.9066 132.766 63.9852C132.786 66.6486 132.738 69.2391 132.487 71.8908C132.417 72.6202 132.335 74.1334 131.824 74.648C131.709 74.7642 131.631 74.7885 131.46 74.7733C130.992 74.7319 130.32 74.3093 129.887 74.0871L114.92 64.5377C114.753 64.2867 114.28 64.0699 114.012 63.896L111.592 62.292L104.255 57.1482C103.839 56.8714 103.23 56.5615 102.933 56.1658L103.103 56.0413C103.975 56.129 105.145 56.1886 105.875 55.673L105.937 55.7102C106.681 56.1856 107.186 57.2667 107.883 57.8845C109.296 59.1346 110.968 60.0106 112.755 60.5901L115.725 61.4228Z" fill="url(#paint0_linear_2003_1185)"/>
<path d="M91.2858 53.3767C91.318 53.4739 91.457 53.788 91.4335 53.8692L91.754 54.2558L91.5539 54.4122L91.7767 55.521L91.8808 55.6741L104.801 55.7151C104.14 55.9323 103.301 55.8381 102.608 55.8354C102.784 55.9953 102.874 56.0044 103.1 56.0322L103.102 56.0413L102.932 56.1658C103.229 56.5615 103.838 56.8713 104.255 57.1482L111.591 62.292L114.012 63.8959C114.279 64.0698 114.753 64.2867 114.919 64.5377L129.887 74.0871L129.635 75.3018C128.429 78.8519 126.454 82.6541 123.349 84.8956C122.616 85.3282 121.913 85.6035 121.087 85.8074L118.762 85.9916C117.12 86.1093 115.46 86.0705 113.814 86.0758C113.343 86.0774 112.626 86.1731 112.189 86.0762L79.9425 86.1336C79.7606 85.8647 78.0397 86.1955 77.6437 85.9916L77.764 85.8852C77.9592 84.4438 77.6964 82.7407 77.464 81.3167C77.6535 80.5413 78.0428 79.7906 78.364 79.0615L68.9824 76.0541L68.9073 76.0248L68.7793 76.1471L68.6259 75.9664C68.1744 75.9212 67.7795 75.7924 67.3409 75.7062C66.7238 75.8221 65.9644 76.8504 65.5265 77.2988C65.2379 77.5942 64.9118 77.8487 64.6114 78.1327L62.4374 76.5709L62.2628 76.4338L61.6704 76.0043L61.3135 75.7693L60.5058 75.1989L60.3641 75.1047C60.1534 74.9737 59.9654 74.7877 59.7509 74.6737C59.5789 74.5826 59.4205 74.4744 59.258 74.3669C58.385 75.4025 57.1159 75.9633 56.3512 77.1648C55.2074 76.354 53.9482 75.1613 52.6758 74.6027C52.9002 74.0051 53.3931 73.4465 53.7629 72.9289L55.9726 69.8649L65.4696 56.7301L66.4713 55.3031C66.5366 55.2218 66.6202 55.1481 66.6938 55.0741C67.6879 54.9655 68.72 55.0175 69.7199 55.0164L74.9051 55.0145L91.1859 55.008L90.9508 53.9786C91.132 53.9444 91.0427 53.9748 91.2163 53.8825L91.2858 53.3767Z" fill="#293444"/>
<path d="M118.762 85.9912C118.66 85.9559 118.448 85.9141 118.368 85.8548C118.079 85.6426 118.166 85.4892 117.751 85.3912C117.455 85.3217 117.184 85.2059 116.896 85.1087C116.453 84.9587 115.976 84.8843 115.555 84.6762C115.444 84.6215 115.344 84.5736 115.225 84.5368C113.536 84.0151 111.748 83.0775 110.203 82.211L108.311 81.1257C106.364 80.037 104.54 78.7312 102.755 77.3998C102.146 76.9461 101.579 76.4182 100.948 75.9979C100.444 75.6626 99.9796 75.1963 99.5387 74.7805C99.1879 74.4497 98.8358 74.223 98.5298 73.8228L98.6217 73.6812C98.6851 73.6868 98.7546 73.6701 98.8115 73.6979C98.9331 73.7571 99.0732 73.9705 99.1905 74.0601C99.6709 74.4277 100.112 74.8462 100.567 75.2471C101.86 76.386 103.298 77.4537 104.715 78.4334C105.165 78.7448 105.644 79.1625 106.121 79.4082C106.473 79.5893 106.779 79.8464 107.118 80.0496L110.054 81.7572C111.852 82.7004 113.732 83.6752 115.646 84.3515L118.676 85.2625C119.472 85.5416 120.341 85.4113 121.088 85.807L118.762 85.9912Z" fill="#172136"/>
<path d="M114.919 64.5371L129.887 74.0865L129.635 75.3013C129.381 75.2029 129.094 75.2033 128.839 75.0901C126.654 74.1177 124.708 72.4529 122.678 71.1968C122.372 71.0081 122.001 70.5922 121.69 70.4681C121.425 70.3625 120.972 70.465 120.727 70.3443C120.341 70.1552 120.043 69.4508 119.649 69.2662C119.271 69.0897 118.841 68.5748 118.594 68.2315C117.877 67.2358 116.915 66.4285 115.994 65.6235C115.551 65.2362 115.203 65.0877 114.919 64.5371Z" fill="#08132A"/>
<path d="M91.2858 53.3767C91.318 53.4739 91.457 53.788 91.4335 53.8692L91.754 54.2558L91.5539 54.4122L91.7768 55.521L91.8808 55.6741L104.801 55.7151C104.14 55.9323 103.301 55.8381 102.608 55.8354C102.784 55.9953 102.874 56.0044 103.1 56.0322L103.102 56.0413L102.932 56.1658C103.229 56.5615 103.838 56.8713 104.255 57.1482C103.654 57.3597 103.014 57.3099 102.385 57.3122L99.5399 57.3244L88.1196 57.3039L74.1532 57.2116L69.6978 68.8134L68.9073 70.7937C68.7231 71.2144 68.4345 71.7092 68.3377 72.1391C68.2758 72.4144 68.0886 72.7459 67.9989 73.0303C67.7612 73.7829 67.5531 74.5636 67.1639 75.2559C66.9475 75.6409 66.575 75.9701 66.2681 76.2846C65.7559 76.8097 65.233 77.3778 64.6706 77.8487C64.4679 77.666 64.2928 77.5274 64.065 77.3831L59.6852 74.3012L59.5883 74.2405L58.4173 73.3967C57.3829 72.725 56.3884 71.9541 55.2845 71.4032L55.1429 71.5448C55.2792 71.7153 55.2826 71.7354 55.4748 71.8292C55.6821 71.9302 55.9513 72.117 56.1389 72.256L59.258 74.3669C58.385 75.4025 57.1159 75.9633 56.3512 77.1648C55.2074 76.354 53.9482 75.1613 52.6758 74.6027C52.9002 74.0051 53.3931 73.4465 53.7629 72.9289L55.9726 69.8649L65.4696 56.7301L66.4713 55.3031C66.5366 55.2218 66.6202 55.1481 66.6938 55.0741C67.6879 54.9655 68.72 55.0175 69.7199 55.0164L74.9051 55.0145L91.1859 55.008L90.9508 53.9786C91.132 53.9444 91.0427 53.9748 91.2163 53.8825L91.2858 53.3767Z" fill="#08132A"/>
<path d="M65.4696 56.73C66.4094 56.9924 67.3709 56.9445 68.3361 56.9472L72.0928 56.9901C72.5242 57.0011 73.1336 56.9441 73.5369 57.0653C72.8773 58.1023 72.3556 59.2176 71.685 60.2478C69.7711 63.1869 67.3838 66.0383 65.0492 68.6561C63.3355 70.5779 61.2876 72.2973 59.6852 74.3011L59.5883 74.2404L58.4173 73.3966C57.3829 72.7249 56.3884 71.954 55.2845 71.4031L55.1429 71.5447C55.2792 71.7152 55.2826 71.7353 55.4748 71.8291C55.6821 71.9301 55.9513 72.1169 56.1389 72.2559L59.258 74.3668C58.385 75.4023 57.1159 75.9632 56.3512 77.1647C55.2074 76.3539 53.9482 75.1612 52.6758 74.6026C52.9002 74.005 53.3931 73.4464 53.7629 72.9288L55.9726 69.8648L65.4696 56.73Z" fill="#172136"/>
<path d="M83.4081 71.1565C85.6982 70.8247 87.9128 69.9767 90.2379 69.8142C90.3647 69.8264 90.5705 69.8172 90.6856 69.8571C91.333 70.0831 94.536 73.479 95.3213 74.1955C98.1863 76.8103 101.258 79.4042 104.487 81.5603L108.292 83.9462L110.519 85.17C111.023 85.4252 111.805 85.6762 112.19 86.0764L79.9438 86.1338C79.7619 85.8649 78.041 86.1957 77.6449 85.9918L77.7653 85.8854C77.9605 84.444 77.6977 82.7409 77.4653 81.3169C77.6548 80.5415 78.044 79.7908 78.3653 79.0617C78.7811 79.0545 79.1221 79.337 79.5884 79.3291C80.1166 79.0386 80.5597 77.4243 80.791 76.8521L81.964 74.2031C82.3858 73.2052 82.7371 72.009 83.4081 71.1565Z" fill="#08132A"/>
<path d="M33.7055 64.6C33.8866 64.7185 33.894 64.7117 34.1112 64.6938C34.474 64.1417 34.4431 62.5506 34.4971 61.8618L34.9225 57.0271L35.1487 57.1873L34.588 64.6741C34.9314 64.6687 35.3896 64.758 35.6394 64.5199L35.6412 64.4432C35.6469 64.2594 35.6399 64.1838 35.7297 64.0156L35.9429 64.0874L35.7929 64.5674C36.0511 64.7944 37.2489 64.6904 37.6372 64.6934C39.8765 64.7098 42.1968 64.5431 44.4242 64.7249C44.4565 65.3883 44.4539 65.9978 44.3559 66.6559C44.0031 66.9072 43.6621 66.5347 43.5554 67.0629C43.5133 66.935 43.473 66.8556 43.388 66.7508L24.9956 66.706C24.6567 66.7018 24.4151 66.7455 24.1187 66.5609L24.083 66.2682C24.0545 65.8292 24.1244 65.1248 24.4299 64.8028C24.5205 64.7075 24.7047 64.676 24.8324 64.6623C25.6454 64.5746 26.5846 64.6813 27.4118 64.687L33.4697 64.6896L33.7055 64.6Z" fill="#C66F66"/>
<path d="M24.9956 66.7056L43.3879 66.7504C43.473 66.8552 43.5132 66.9345 43.5554 67.0625L42.9957 73.0091C44.379 72.5617 45.8979 72.2135 47.3348 71.9883C48.5735 71.7939 49.8323 71.6963 51.0611 71.4457L51.1773 71.5444C50.7801 71.874 49.6394 71.8596 49.115 71.9276L47.0128 72.2712L43.6131 73.0159C43.4802 73.0516 43.0253 73.1032 42.9391 73.1708C42.8681 73.2266 42.6448 75.0235 42.6004 75.2624C42.142 75.1534 41.476 75.0197 41.0557 75.2958C40.4286 75.7074 40.4528 76.3761 40.002 76.8162C39.7029 76.6833 39.474 76.673 39.1491 76.6704C39.1387 76.184 39.2983 75.7218 39.4019 75.251L39.8961 72.9684L40.7619 68.4903L30.2167 68.5328L27.0626 68.5408C26.4228 68.5408 25.7238 68.4747 25.1069 68.6672L24.9956 66.7056Z" fill="#8D4B52"/>
<path d="M35.7285 64.0156C36.2729 62.4887 37.1882 60.9633 38.0275 59.5766C38.3238 59.0871 38.9076 58.4138 39.0666 57.8712C39.161 57.5484 39.0526 57.0332 39.0618 56.688C39.0769 56.1237 39.1706 55.5393 39.2916 54.9883C40.1321 51.1618 43.3363 47.9049 46.8005 46.2542C50.1334 44.6666 53.3117 44.1664 56.9442 44.7395C57.9968 44.9054 59.0748 45.1124 60.0785 45.4814L60.4126 45.6136L60.3241 45.7025C59.7523 46.2808 59.2894 46.9449 58.7627 47.562C58.2398 48.1745 57.6364 48.7551 57.0406 49.297C53.4879 52.5296 49.1541 55.1539 44.652 56.827C43.0131 57.436 41.2951 57.9749 39.5314 57.995L39.3854 57.9965C38.0039 59.8785 36.8877 61.9571 35.9417 64.0874L35.7285 64.0156Z" fill="#72A893"/>
<path d="M44.3048 23.9428C46.3303 22.4117 48.2973 21.0523 50.6607 20.0916C50.8654 20.3623 50.9816 20.7743 51.097 21.0944C51.4323 22.0266 51.6454 22.9775 51.8793 23.9352L52.0961 25.0884L52.1257 30.0249C51.2417 35.5613 48.5787 40.1993 44.0068 43.5082C43.0446 44.2043 42.0776 44.8153 40.9797 45.2778L39.6323 45.7931C39.5391 45.8265 39.2302 45.8994 39.1659 45.9571C38.9461 46.1534 38.0831 50.4303 37.9881 51.0003L37.2431 56.1042L37.0169 55.944L37.7608 50.8191C37.8926 50.1322 38.873 46.2548 38.8082 45.951C38.7231 45.5512 38.2671 45.0283 38.0846 44.628C37.3671 43.0552 36.822 41.2656 36.6627 39.5405C36.5647 38.4791 36.4951 37.0654 36.7526 36.0291C37.2946 33.8468 43.2241 24.9779 43.2241 24.9779C43.2241 24.9779 44.0136 24.3813 44.3048 23.9428Z" fill="#72A893"/>
<path d="M59.9531 33.6632C59.9941 33.4012 60.0515 33.3192 60.228 33.1217C60.9252 32.8654 61.9695 33.0059 62.7221 33.0124L66.8832 33.02L82.116 33.031C83.1397 33.0222 85.5836 32.7177 86.304 33.4665C86.5762 33.7498 86.6829 34.1743 86.7984 34.54C87.1132 35.5391 87.2913 36.5655 87.5457 37.5797L90.465 49.7242L91.2879 53.3768L91.2184 53.8826C91.0449 53.9749 91.1341 53.9445 90.953 53.9787L91.188 55.0081L74.9072 55.0145L69.722 55.0165C68.7222 55.0176 67.6901 54.9656 66.696 55.0742C66.6223 55.1482 66.5388 55.2219 66.4734 55.3031L66.3633 55.1828C66.1218 55.1475 65.897 55.1129 65.6939 54.9671C65.395 54.7533 65.2317 54.4465 65.1114 54.1066C64.6788 52.8816 64.4514 51.619 64.1377 50.3633L62.3769 43.3284L61.1679 38.3498C60.7536 36.8146 60.2292 35.2266 59.9531 33.6632Z" fill="#B2BDC9"/>
<path d="M59.9531 33.6626C59.9941 33.4006 60.0515 33.3185 60.228 33.1211C60.9252 32.8648 61.9695 33.0053 62.7221 33.0117L66.8832 33.0193L82.116 33.0303L82.0518 33.0546C81.4822 33.2464 80.6544 33.148 80.0483 33.1488L75.7453 33.1442C75.8242 33.1997 75.8903 33.2809 75.9818 33.3109C76.0919 33.347 76.3995 33.3102 76.5267 33.3102L78.081 33.3087L84.4725 33.3432C84.7945 33.336 85.0452 33.4082 85.3467 33.5088L68.0129 33.4879L63.0206 33.5057C62.2083 33.5099 61.2537 33.4309 60.4604 33.5714C60.326 33.595 60.2402 33.6542 60.127 33.7249L59.9531 33.6626Z" fill="#08132A"/>
<path d="M74.5331 41.4986L74.881 41.4541C75.3864 41.442 76.0209 41.8331 76.3574 42.1874C77.1142 42.9844 77.0435 43.4842 77.0109 44.525C76.5692 45.0316 76.2791 45.2503 75.6351 45.4531C75.3363 45.4618 75.1305 45.42 74.8567 45.2974L74.7458 45.2461C74.1827 44.9917 73.6043 44.367 73.3454 43.8066C73.2011 43.4948 73.1771 43.0228 73.2994 42.6993C73.539 42.0655 73.937 41.7602 74.5331 41.4986Z" fill="#FDFDFD"/>
<path d="M82.1139 33.031C83.1376 33.0222 85.5815 32.7177 86.3019 33.4665C86.5741 33.7498 86.6809 34.1743 86.7963 34.54C87.1111 35.5391 87.2892 36.5655 87.5436 37.5797L90.4629 49.7242L91.2858 53.3768L91.2163 53.8826C91.0428 53.9749 91.132 53.9445 90.9509 53.9787L86.2662 34.592C86.098 34.016 85.8557 33.7942 85.3446 33.5094C85.0431 33.4088 84.7925 33.3366 84.4705 33.3439L78.0789 33.3093L76.5246 33.3108C76.3974 33.3108 76.0899 33.3477 75.9797 33.3116C75.8882 33.2816 75.8221 33.2003 75.7432 33.1449L80.0462 33.1494C80.6523 33.1487 81.4801 33.247 82.0497 33.0553L82.1139 33.031Z" fill="#06162E"/>
<path d="M112.453 5.74996C112.687 5.47693 112.969 5.24227 113.234 5L114.164 5.61136L117.232 7.55367L120.758 9.20359C121.155 9.38244 121.55 9.47319 121.983 9.51041L122.044 9.53433C122.529 9.71242 123.06 9.76255 123.564 9.87495C124.528 10.0903 125.497 10.3466 126.388 10.7814C126.811 10.9875 127.255 11.2427 127.476 11.6787C127.9 12.5141 127.922 13.7668 127.676 14.6523L127.526 14.4518C127.216 14.4769 126.957 14.508 126.662 14.6109C126.124 14.7985 125.497 14.8961 124.933 14.9432C124.785 15.0696 124.605 15.2625 124.441 15.3613C124.052 15.5955 122.724 15.5447 122.216 15.6028C122.139 15.6115 121.837 15.6309 121.783 15.6852C121.741 15.7269 121.687 15.957 121.662 16.025L121.583 15.6817C118.641 15.4999 115.583 15.4011 112.871 14.14C112.792 14.5327 112.742 14.8794 112.484 15.2021L112.432 15.2621C112.376 14.7989 112.375 14.3375 112.396 13.8723C111.49 13.1907 110.696 12.4039 110.511 11.2423C110.246 9.58256 110.889 8.04959 111.819 6.70839C111.917 6.41752 112.272 6.01273 112.453 5.74996Z" fill="#6F303E"/>
<path d="M111.819 6.70825L111.826 6.78648C111.867 7.28013 111.773 7.76618 111.761 8.2602C111.725 9.69026 112.222 10.8325 113.301 11.7864C115.655 13.868 119.362 14.4156 122.385 14.727C123.218 14.8128 124.116 14.7653 124.933 14.943C124.785 15.0695 124.605 15.2624 124.441 15.3611C124.052 15.5954 122.724 15.5445 122.216 15.6026C122.139 15.6114 121.837 15.6307 121.783 15.685C121.741 15.7268 121.687 15.9569 121.662 16.0249L121.583 15.6816C118.641 15.4997 115.583 15.401 112.871 14.1399C112.792 14.5325 112.742 14.8792 112.484 15.202L112.432 15.262C112.376 14.7987 112.375 14.3374 112.396 13.8722C111.49 13.1906 110.696 12.4038 110.511 11.2422C110.246 9.58241 110.889 8.04945 111.819 6.70825Z" fill="#45122D"/>
<path d="M112.433 15.262L112.485 15.202C112.743 14.8792 112.793 14.5325 112.872 14.1399C115.584 15.401 118.642 15.4997 121.584 15.6816L121.663 16.0249C121.688 15.9569 121.742 15.7268 121.784 15.685C121.838 15.6307 122.14 15.6113 122.217 15.6026C122.726 15.5445 124.053 15.5954 124.442 15.3611C124.606 15.2624 124.786 15.0695 124.934 14.943C125.498 14.8959 126.125 14.7983 126.663 14.6108C126.958 14.5079 127.217 14.4767 127.528 14.4516L127.677 14.6521C127.411 16.1437 126.994 17.5715 126.409 18.9704C125.547 20.9568 124.609 23.5404 122.721 24.7567C122.604 24.1719 122.658 23.5351 122.606 22.9393C122.577 22.609 122.464 22.3192 122.585 21.9961C122.296 22.1244 122.168 22.4563 122.048 22.7495C121.926 23.0476 121.876 23.3301 121.714 23.6213C121.049 24.8103 119.706 25.9472 118.476 26.5084C117.889 26.7761 117.254 26.9344 116.611 26.9508C115.979 26.9895 114.941 26.9994 114.354 26.7856C113.92 26.6276 113.503 26.3394 113.085 26.1355C113.001 25.7163 112.763 25.3012 112.513 24.9572C111.858 23.6008 111.97 22.1761 111.985 20.713L111.975 20.6469L112.067 19.2188C112.182 18.5504 112.301 17.5293 112.183 16.8675C112.195 16.5599 112.214 16.4076 112.395 16.1551C112.474 15.8847 112.434 15.5449 112.433 15.262Z" fill="#FEB09B"/>
<path d="M117.962 18.5253C118.19 18.4611 118.235 18.4527 118.463 18.5086L118.587 18.7151C118.491 19.0034 118.427 19.1727 118.2 19.3797L117.894 19.4321C117.656 19.2608 117.67 19.1792 117.589 18.905C117.684 18.6282 117.713 18.6517 117.962 18.5253Z" fill="#06162E"/>
<path d="M113.229 17.8606C113.402 17.8063 113.536 17.8215 113.715 17.8295C113.775 17.8933 113.853 17.9658 113.887 18.0505C114.013 18.3603 113.913 18.5551 113.81 18.8479C113.6 18.9428 113.604 18.9341 113.382 18.8688C113.316 18.7936 113.24 18.7161 113.204 18.6201C113.084 18.3038 113.105 18.15 113.229 17.8606Z" fill="#06162E"/>
<path d="M117.694 16.9109C117.799 16.8779 117.822 16.8646 117.943 16.8562C118.326 16.8293 119.286 17.1722 119.557 17.4281C119.692 17.5561 119.657 17.5451 119.661 17.7137L119.413 17.7892C118.909 17.7228 118.463 17.4968 117.974 17.4463C117.754 17.4235 117.617 17.3989 117.42 17.3013V17.1441L117.694 16.9109Z" fill="#06162E"/>
<path d="M112.397 16.1547C113.188 16.0336 113.754 16.1206 114.517 16.3412C114.631 16.5553 114.61 16.5793 114.572 16.8223C114.391 16.9518 114.28 17.0163 114.05 16.9882C113.313 16.8986 112.97 16.6898 112.186 16.8671C112.197 16.5595 112.216 16.4073 112.397 16.1547Z" fill="#240B21"/>
<path d="M117.29 23.3663L117.607 23.3352L117.666 23.5562C117.469 24.1174 117.224 24.6407 116.882 25.1294C116.604 25.5262 116.22 25.7161 115.749 25.7955C115.119 25.9022 114.512 25.8779 113.984 25.4936C113.383 24.9046 113.354 24.2925 113.261 23.5046C114.64 23.5334 115.914 23.5881 117.29 23.3663Z" fill="#FDFDFD"/>
<path d="M124.936 14.9433C125.499 14.8962 126.126 14.7986 126.664 14.611C126.959 14.5081 127.218 14.477 127.529 14.4519L127.678 14.6524C127.412 16.144 126.996 17.5718 126.41 18.9707C125.548 20.957 124.61 23.5407 122.722 24.757C122.605 24.1722 122.659 23.5354 122.607 22.9396C122.578 22.6092 122.465 22.3195 122.587 21.9963C122.951 22.0115 123.166 21.9868 123.472 21.7772L123.589 21.6933C124.225 21.2445 124.483 20.7679 124.819 20.0852C124.744 19.7647 124.618 19.3857 124.443 19.1051C124.277 18.8385 124.052 18.6058 123.731 18.5575C122.929 18.4375 122.259 19.0914 121.677 19.5509L121.665 16.0251C121.689 15.9571 121.744 15.727 121.785 15.6853C121.839 15.631 122.141 15.6116 122.218 15.6029C122.727 15.5448 124.054 15.5956 124.443 15.3614C124.607 15.2626 124.787 15.0697 124.936 14.9433Z" fill="#240B21"/>
<defs>
<linearGradient id="paint0_linear_2003_1185" x1="120.428" y1="58.8343" x2="116.41" y2="67.9689" gradientUnits="userSpaceOnUse">
<stop stop-color="#D55A04"/>
<stop offset="1" stop-color="#F6891A"/>
</linearGradient>
</defs>
</svg>
